<?xml version="1.0" encoding="utf-8"?>
<!-- Generator: Adobe Illustrator 16.0.4, SVG Export Plug-In . SVG Version: 6.00 Build 0)  -->
<!DOCTYPE svg PUBLIC "-//W3C//DTD SVG 1.1//EN" "http://www.w3.org/Graphics/SVG/1.1/DTD/svg11.dtd">
<svg version="1.1" id="Global_Nav_Small_Icons" xmlns="http://www.w3.org/2000/svg" xmlns:xlink="http://www.w3.org/1999/xlink"
	 x="0px" y="0px" width="19px" height="48px" viewBox="0 0.5 19 48" enable-background="new 0 0.5 19 48" xml:space="preserve">
<path id="Bag_3_" fill="#FFFFFF" d="M16.5,18.5c0.275,0,0.5,0.224,0.5,0.5v13c0,0.275-0.225,0.5-0.5,0.5h-14
	C2.224,32.5,2,32.275,2,32V19c0-0.276,0.224-0.5,0.5-0.5H16.5 M16.5,17.5h-14C1.673,17.5,1,18.173,1,19v13
	c0,0.827,0.673,1.5,1.5,1.5h14c0.827,0,1.5-0.673,1.5-1.5V19C18,18.173,17.327,17.5,16.5,17.5L16.5,17.5z M9.5,13.5
	c2.5,0,3.5,1.983,3.5,4H6C6,15.483,7,13.5,9.5,13.5 M9.5,12.5c-2.691,0-4.5,2.01-4.5,5v1h1h7h1v-1C14,14.51,12.191,12.5,9.5,12.5
	L9.5,12.5z"/>
</svg>
